<svg width="20" height="18" viewBox="0 0 20 18" fill="none" xmlns="http://www.w3.org/2000/svg">
<path d="M8.75 7.875L1.75 3.5V12.25H10.5V14H1.75C1.26875 14 0.856771 13.8286 0.514063 13.4859C0.171354 13.1432 0 12.7312 0 12.25V1.75C0 1.26875 0.171354 0.856771 0.514063 0.514063C0.856771 0.171354 1.26875 0 1.75 0H15.75C16.2313 0 16.6432 0.171354 16.9859 0.514063C17.3286 0.856771 17.5 1.26875 17.5 1.75V6.125H15.75V3.5L8.75 7.875ZM8.75 6.125L15.75 1.75H1.75L8.75 6.125ZM15.75 17.5C14.7875 17.5 13.9635 17.1573 13.2781 16.4719C12.5927 15.7865 12.25 14.9625 12.25 14V10.0625C12.25 9.45 12.4615 8.93229 12.8844 8.50938C13.3073 8.08646 13.825 7.875 14.4375 7.875C15.05 7.875 15.5677 8.08646 15.9906 8.50938C16.4135 8.93229 16.625 9.45 16.625 10.0625V14H14.875V10.0625C14.875 9.94583 14.8313 9.84375 14.7438 9.75625C14.6562 9.66875 14.5542 9.625 14.4375 9.625C14.3208 9.625 14.2188 9.66875 14.1312 9.75625C14.0437 9.84375 14 9.94583 14 10.0625V14C14 14.4812 14.1714 14.8932 14.5141 15.2359C14.8568 15.5786 15.2688 15.75 15.75 15.75C16.2313 15.75 16.6432 15.5786 16.9859 15.2359C17.3286 14.8932 17.5 14.4812 17.5 14V10.5H19.25V14C19.25 14.9625 18.9073 15.7865 18.2219 16.4719C17.5365 17.1573 16.7125 17.5 15.75 17.5ZM1.75 3.5V1.75V12.25V3.5Z" fill="#0081A7"/>
</svg>
